<svg width="207" height="23" viewBox="0 0 207 23" fill="none" xmlns="http://www.w3.org/2000/svg">
<g clip-path="url(#clip0_6011_2426)">
<path d="M176.744 0.0869141L173.516 5.49698H181.311V22.5083H187.826V5.49698H192.378L195.948 0.0869141H176.744Z" fill="white"/>
<path d="M172.282 0.0869141H165.752V22.5083H172.282V0.0869141Z" fill="white"/>
<path d="M153.019 6.92893V10.256H149.092L153.019 6.92893ZM152.186 0L140.97 10.1258V15.9119H153.108V22.6239H160.144V15.9119H161.096L164.785 10.3572H160.144V0H152.186Z" fill="#00A3D9"/>
<path d="M133.042 0.0869141L128.103 7.42088L123.432 0.0869141H115.698L124.786 12.8599V22.5083H131.316V13.019L140.866 0.0869141H133.042Z" fill="white"/>
<path d="M110.804 5.49698L114.374 0.0869141H96.5237V22.5083H103.084V13.9737H109.926L113.496 8.56364H103.084V5.49698H110.804Z" fill="white"/>
<path d="M61.27 5.49698L64.8251 0.0869141H47.0941V22.5083H61.2402L64.8102 17.0982H53.6391V13.9737H60.3775L63.9623 8.56364H53.6391V5.49698H61.27Z" fill="white"/>
<path d="M94.218 0.0869141H87.6879V22.5083H94.218V0.0869141Z" fill="white"/>
<path d="M77.8407 5.49696H82.8982L86.4533 0.086894H77.2606C75.1073 0.0399407 72.9666 0.418883 70.9685 1.20073C67.6662 2.77746 65.7771 6.48061 65.7771 11.3265C65.7771 15.4347 66.982 18.5592 69.2876 20.4397C71.2065 21.9731 73.17 22.4938 77.0523 22.4938H82.8833L86.4533 17.0837H78.0043C76.7393 17.186 75.4724 16.9083 74.3748 16.2882C73.3931 15.5504 72.7981 13.5542 72.7981 10.9504C72.6583 9.50639 72.9971 8.05675 73.765 6.81331C74.3028 6.32453 74.9425 5.954 75.6406 5.72687C76.3387 5.49975 77.0789 5.42133 77.8109 5.49696" fill="white"/>
<path d="M36.5775 0.0869141H27.355L23.7999 5.49698H36.7411C37.2427 5.46821 37.7456 5.52201 38.2286 5.6561C38.5698 5.83314 38.8485 6.10557 39.0288 6.43821C39.2091 6.77084 39.2827 7.1484 39.2401 7.52213C39.2741 7.88395 39.2295 8.24867 39.109 8.5926C38.9886 8.93652 38.795 9.25194 38.541 9.51836C37.9505 9.81525 37.283 9.93602 36.6221 9.86553H24.5139V22.5083H31.044V15.2756H37.8121C40.6533 15.2756 42.111 14.8706 43.5836 13.641C44.4405 12.891 45.1217 11.9708 45.5811 10.9426C46.0405 9.91435 46.2673 8.80214 46.2462 7.68125C46.248 6.64602 46.0386 5.62072 45.6301 4.66475C45.2215 3.70878 44.622 2.84114 43.8663 2.11207C42.23 0.520876 40.6681 0.0869141 36.5775 0.0869141Z" fill="white"/>
<path d="M13.9974 8.43327H10.4125C9.52983 8.53538 8.63493 8.421 7.80937 8.10057C7.61323 7.97221 7.45419 7.79712 7.34743 7.592C7.24066 7.38688 7.18973 7.15857 7.1995 6.92887C7.18594 6.70264 7.23544 6.47704 7.34278 6.2759C7.45013 6.07476 7.61133 5.90554 7.80937 5.7861C8.78065 5.54712 9.78637 5.46887 10.7844 5.55465H18.8317L22.4315 0.0867291H9.74312C7.96339 -0.0324676 6.17597 0.153594 4.4625 0.636415C3.15787 1.15128 2.04734 2.0434 1.28114 3.19211C0.514932 4.34082 0.130036 5.69067 0.178515 7.05906C0.165426 8.0814 0.391648 9.09324 0.840061 10.018C1.28847 10.9428 1.94733 11.7562 2.76676 12.3968C4.53169 13.5041 6.62363 14.0126 8.71675 13.8433H12.8966C13.612 13.7791 14.3327 13.8884 14.994 14.1616C15.2769 14.2839 15.5135 14.489 15.6708 14.7483C15.8281 15.0076 15.8983 15.3082 15.8716 15.6081C15.8828 15.859 15.8165 16.1074 15.6813 16.3214C15.5461 16.5353 15.3482 16.7051 15.113 16.8087C14.2123 17.0969 13.2621 17.21 12.3165 17.1414H4.09063L0.520639 22.5081H13.3875C17.0467 22.5081 18.564 22.2622 19.873 21.4377C20.8398 20.7772 21.6258 19.8967 22.1625 18.8731C22.6992 17.8494 22.9703 16.7136 22.9521 15.5647C22.9876 14.5835 22.8174 13.6055 22.4517 12.6903C22.086 11.7751 21.5325 10.9419 20.825 10.2414C19.3375 8.93956 17.4335 8.43327 13.9974 8.43327Z" fill="white"/>
<path d="M198.12 0V0.781132H199.22V4.16604H200.202V0.781132H201.318V0H198.12ZM205.557 0L204.59 2.89308L203.638 0H202.299V4.16604H203.281V3.13899L203.162 1.28742L204.174 4.1805H204.843L205.869 1.28742L205.78 3.16793V4.19497H206.762V0H205.557Z" fill="white"/>
</g>
<defs>
<clipPath id="clip0_6011_2426">
<rect width="207" height="23" fill="white"/>
</clipPath>
</defs>
</svg>
