<svg width="390" height="119" viewBox="0 0 390 119" fill="none" xmlns="http://www.w3.org/2000/svg">
<g opacity="0.05" clip-path="url(#clip0_6001_3238)">
<path d="M303.737 0.455811L287.398 28.8679H326.853V118.207H359.833V28.8679H382.874L400.945 0.455811H303.737Z" fill="#00A3D9"/>
<path d="M281.148 0.455811H248.093V118.207H281.148V0.455811Z" fill="#00A3D9"/>
<path d="M183.639 36.3888V53.8615H163.76L183.639 36.3888ZM179.422 0L122.648 53.1778V83.565H184.09V118.814H219.706V83.565H224.525L243.198 54.3932H219.706V0H179.422Z" fill="#00A3D9"/>
<path d="M59.9715 44.2895H41.8249C37.3569 44.8258 32.8269 44.2251 28.6479 42.5423C27.6551 41.8682 26.85 40.9487 26.3096 39.8714C25.7691 38.7942 25.5113 37.5952 25.5608 36.3888C25.4921 35.2007 25.7427 34.016 26.2861 32.9596C26.8295 31.9033 27.6455 31.0146 28.6479 30.3874C33.5645 29.1323 38.6555 28.7214 43.7073 29.1719H84.4429L102.665 0.455876H38.4365C29.4276 -0.170111 20.3797 0.807031 11.7061 3.34267C5.10211 6.04657 -0.519399 10.7318 -4.39791 16.7645C-8.27642 22.7971 -10.2248 29.8862 -9.97937 37.0726C-10.0456 42.4416 -8.90049 47.7555 -6.63062 52.6121C-4.36076 57.4687 -1.02565 61.7407 3.1223 65.1048C12.0564 70.9199 22.6457 73.5908 33.2411 72.7017H54.3995C58.021 72.3643 61.6689 72.9385 65.0163 74.373C66.4483 75.0153 67.646 76.0925 68.4423 77.4543C69.2387 78.816 69.594 80.3946 69.4589 81.9698C69.5154 83.2874 69.1799 84.5919 68.4955 85.7156C67.8112 86.8392 66.8093 87.7307 65.6187 88.2751C61.0593 89.7886 56.2494 90.3823 51.4629 90.0224H9.82372L-8.24754 118.207H56.8843C75.4073 118.207 83.0876 116.915 89.7137 112.585C94.6079 109.116 98.5867 104.492 101.303 99.1163C104.02 93.7404 105.392 87.7756 105.3 81.7419C105.48 76.5887 104.618 71.4524 102.767 66.6461C100.916 61.8398 98.1143 57.4641 94.5327 53.7856C87.003 46.9484 77.365 44.2895 59.9715 44.2895Z" fill="#00A3D9"/>
</g>
<defs>
<clipPath id="clip0_6001_3238">
<rect width="466" height="119" fill="white" transform="translate(-10)"/>
</clipPath>
</defs>
</svg>
